# xmcd CD database file
#
# Track frame offsets:
#	150
#	21720
#	34369
#	54749
#	74224
#	88375
#	102822
#	115263
#	129710
#	143248
#	157218
#	169413
#	190986
#	215463
#	242576
#
# Disc length: 3463 seconds
#
# Revision: 0
# Processed by: cddbd v1.5.2PL0 Copyright (c) Steve Scherf et al.
# Submitted via: CDex 1.70beta2
#
DISCID=f50d850f
DTITLE=Various Artist - Best Of Smooth Jazz vol.4  CD 1
DYEAR=2009
DGENRE=Jazz
TTITLE0=Basia  - If Not Now Then When
TTITLE1=Melody Gardot - If The Stars Were Mine
TTITLE2=Marvin Gaye - I Want You
TTITLE3=Shanice - I Love Your Smile
TTITLE4=Hucknall - Ain't That Lovin' You
TTITLE5=The Noisettes - Never Forget You
TTITLE6=Dinah Washington - Teach Me Tonight
TTITLE7=Gladys Knight - If I Were Your Woman
TTITLE8=Etta James - At Last
TTITLE9=Peggy Lee - Black Coffee
TTITLE10=Astrud Gilberto - Dindi
TTITLE11=John Scofield - I Can't Stop Loving You
TTITLE12=Don Grusin - Outback Oasis
TTITLE13=Lionel Richie - Do It To Me
TTITLE14=David Sanborn - Smile
EXTD=YEAR: 2009
EXTT0=
EXTT1=
EXTT2=
EXTT3=
EXTT4=
EXTT5=
EXTT6=
EXTT7=
EXTT8=
EXTT9=
EXTT10=
EXTT11=
EXTT12=
EXTT13=
EXTT14=
PLAYORDER=
